Coordinates
version=1
nRows=29
nColumns=32
inDegrees=no

Units are S.I. units (second, meters, Newtons, ...)
If the header above contains a line with 'inDegrees', this indicates whether rotational values are in degrees (yes) or radians (no).

endheader
time	pelvis_tilt	pelvis_list	pelvis_rotation	pelvis_tx	pelvis_ty	pelvis_tz	hip_flexion_r	hip_adduction_r	hip_rotation_r	knee_angle_r	ankle_angle_r	subtalar_angle_r	mtp_angle_r	hip_flexion_l	hip_adduction_l	hip_rotation_l	knee_angle_l	ankle_angle_l	subtalar_angle_l	mtp_angle_l	lumbar_extension	lumbar_bending	lumbar_rotation	arm_flex_r	arm_add_r	arm_rot_r	elbow_flex_r	arm_flex_l	arm_add_l	arm_rot_l	elbow_flex_l
0	-0.11887	-0.0146954	0.0435732	0.915218	0.989815	-0.307124	0.188697	-0.000286702	-0.232877	0.685565	0.328355	-0.143072	0.0284675	0.721507	-0.069031	0.0676592	1.86252	0.0465444	-0.276097	-0.00901299	-0.116397	0.0207837	-0.039961	-0.46656	-0.219566	-0.221603	2.04903	-0.640596	-0.266263	-0.0434836	1.94245
0.005	-0.118445	0.000287257	0.0571033	0.91586	0.992553	-0.308373	0.139319	-0.0163969	-0.255069	0.653292	0.301216	-0.120272	0.0284162	0.743635	-0.0456073	0.0575173	1.82344	0.05241	-0.282956	-0.00901968	-0.11297	0.00148485	-0.0401058	-0.466165	-0.217734	-0.219966	2.05916	-0.652232	-0.272216	-0.0443757	1.95367
0.01	-0.118557	0.0148126	0.0691574	0.916581	0.995532	-0.309535	0.0915871	-0.0312416	-0.277215	0.620287	0.266397	-0.0977808	0.0283649	0.763341	-0.0242716	0.0457374	1.78111	0.0570761	-0.287614	-0.00902636	-0.109028	-0.0174724	-0.0389537	-0.466876	-0.216168	-0.218187	2.06973	-0.66431	-0.277932	-0.0461064	1.96541
0.015	-0.119212	0.0288439	0.0797264	0.917376	0.998718	-0.310596	0.0455357	-0.0447924	-0.299257	0.586579	0.223959	-0.0756334	0.0283136	0.78064	-0.00505614	0.0323476	1.73555	0.0605392	-0.290075	-0.00903304	-0.104566	-0.0360469	-0.0364951	-0.468689	-0.214882	-0.216279	2.08074	-0.676825	-0.283401	-0.04867	1.97766
0.02	-0.120422	0.0422718	0.0887887	0.918242	1.00206	-0.311542	0.00126257	-0.0569615	-0.321011	0.552268	0.174118	-0.053958	0.0282623	0.795573	0.0119469	0.0174433	1.68679	0.0628323	-0.2903	-0.00903971	-0.0995654	-0.0541119	-0.0327094	-0.471587	-0.213911	-0.214268	2.0922	-0.689761	-0.288594	-0.0520505	1.99037
0.025	-0.122188	0.0549004	0.0963209	0.91917	1.0055	-0.312363	-0.0410717	-0.067594	-0.342132	0.517551	0.11736	-0.033023	0.028211	0.808196	0.026589	0.0012194	1.63489	0.0640631	-0.288177	-0.00904638	-0.0940018	-0.0714359	-0.0275799	-0.475536	-0.213319	-0.212197	2.10409	-0.703093	-0.293463	-0.0562185	2.00342
0.03	-0.124491	0.0664716	0.102325	0.920152	1.00896	-0.313057	-0.0812589	-0.0764964	-0.362145	0.482761	0.054536	-0.0132578	0.0281597	0.81858	0.0387084	-0.0160138	1.57994	0.0644183	-0.283531	-0.00905305	-0.0878476	-0.0876971	-0.0211251	-0.480471	-0.213186	-0.210104	2.11638	-0.716791	-0.29794	-0.0611371	2.01668
0.035	-0.127281	0.0767021	0.106851	0.921179	1.01236	-0.31363	-0.119068	-0.0834993	-0.380529	0.4484	-0.0130741	0.00476502	0.0281084	0.826785	0.0481978	-0.0338413	1.52202	0.0641527	-0.276155	-0.00905971	-0.0810893	-0.102534	-0.0134385	-0.486295	-0.213599	-0.208002	2.12899	-0.730823	-0.301946	-0.0667696	2.02995
0.04	-0.130491	0.0853463	0.110008	0.922239	1.01562	-0.314094	-0.15427	-0.0885352	-0.396806	0.415162	-0.0837846	0.020369	0.0280571	0.832849	0.0550697	-0.0517937	1.46117	0.0635758	-0.265833	-0.00906637	-0.0737455	-0.115621	-0.00470134	-0.492873	-0.214639	-0.205871	2.14184	-0.745157	-0.305403	-0.0730823	2.04303
0.045	-0.134025	0.092271	0.111935	0.923323	1.01868	-0.314463	-0.186669	-0.0917085	-0.410586	0.383905	-0.155608	0.0328112	0.0280058	0.836756	0.0594915	-0.0694355	1.39736	0.0630274	-0.252357	-0.00907303	-0.0658797	-0.12675	0.00484317	-0.500041	-0.216355	-0.203646	2.15477	-0.759754	-0.308238	-0.0800386	2.05572
0.05	-0.13777	0.0974924	0.11278	0.924416	1.0215	-0.314741	-0.216118	-0.0933139	-0.421586	0.355596	-0.226435	0.0413016	0.0279545	0.838435	0.061786	-0.0864408	1.33054	0.06283	-0.235548	-0.00907969	-0.0576053	-0.135878	0.0149214	-0.507625	-0.218752	-0.201228	2.16763	-0.774559	-0.310402	-0.0875905	2.06783
0.055	-0.141608	0.101161	0.112682	0.925498	1.02408	-0.314931	-0.242529	-0.0937928	-0.429619	0.331241	-0.294235	0.0450315	0.0279032	0.83778	0.0623918	-0.102634	1.26057	0.0632106	-0.215298	-0.00908636	-0.0490824	-0.143122	0.0252584	-0.515444	-0.221786	-0.198497	2.18023	-0.789492	-0.311874	-0.095671	2.07919
0.06	-0.145425	0.103507	0.111753	0.926547	1.0264	-0.315033	-0.26586	-0.0936442	-0.434562	0.311821	-0.357236	0.0432328	0.0278519	0.834692	0.0617861	-0.118008	1.18737	0.0642066	-0.191597	-0.00909302	-0.0405037	-0.148699	0.0356044	-0.523326	-0.225373	-0.195332	2.1924	-0.804443	-0.312657	-0.10419	2.08968
0.065	-0.149128	0.104769	0.110083	0.927537	1.02848	-0.31505	-0.286093	-0.0933177	-0.43631	0.298233	-0.414033	0.035266	0.0278006	0.829131	0.0603932	-0.132725	1.11096	0.0655919	-0.164568	-0.00909969	-0.0320724	-0.152847	0.0457532	-0.531109	-0.229417	-0.19165	2.20395	-0.819267	-0.312777	-0.11303	2.09921
0.07	-0.152644	0.105122	0.107739	0.928446	1.03029	-0.314991	-0.303216	-0.093118	-0.434736	0.29126	-0.463609	0.020714	0.0277492	0.821171	0.0585078	-0.147122	1.03153	0.0668589	-0.134439	-0.00910636	-0.0239777	-0.155751	0.0555521	-0.538654	-0.233823	-0.187431	2.21474	-0.833781	-0.312279	-0.122046	2.10774
0.075	-0.155923	0.104642	0.104777	0.929248	1.03185	-0.314873	-0.317207	-0.0931459	-0.429666	0.291526	-0.505308	-0.000542397	0.0276979	0.811027	0.056254	-0.161704	0.949573	0.067281	-0.10147	-0.00911303	-0.0163831	-0.1575	0.0648976	-0.545857	-0.238499	-0.182736	2.2246	-0.847772	-0.311228	-0.131064	2.11525
0.08	-0.158929	0.103294	0.101262	0.929931	1.03313	-0.314694	-0.32805	-0.0932896	-0.420903	0.299459	-0.538797	-0.0282815	0.0276466	0.799052	0.0535955	-0.177142	0.865889	0.0660514	-0.0658385	-0.00911971	-0.00942945	-0.158081	0.073715	-0.552655	-0.243358	-0.177696	2.23342	-0.861001	-0.3097	-0.139891	2.12178
0.085	-0.161623	0.100969	0.0972871	0.930484	1.03413	-0.314452	-0.335764	-0.0932635	-0.408306	0.315239	-0.564068	-0.0619169	0.0275953	0.785703	0.0503873	-0.194236	0.78161	0.062458	-0.0275379	-0.00912639	-0.0032484	-0.157413	0.0819307	-0.55902	-0.248315	-0.172484	2.24107	-0.873221	-0.307783	-0.148331	2.12734
0.09	-0.163956	0.0975451	0.0929907	0.930899	1.03483	-0.314149	-0.340419	-0.0926924	-0.391895	0.338772	-0.581461	-0.100476	0.0275439	0.771492	0.0464606	-0.213858	0.698145	0.0560413	0.0136644	-0.00913308	0.002032	-0.155404	0.0894462	-0.564956	-0.25328	-0.167283	2.24744	-0.884197	-0.305564	-0.156204	2.13197
0.095	-0.165876	0.0929609	0.0885594	0.931173	1.03524	-0.313792	-0.342136	-0.0912209	-0.371943	0.369705	-0.591695	-0.142627	0.0274926	0.756938	0.0417166	-0.236864	0.617079	0.0466935	0.0581534	-0.00913977	0.00629369	-0.152028	0.0961206	-0.57049	-0.258156	-0.16226	2.25243	-0.893726	-0.303131	-0.163364	2.13568
0.1	-0.167339	0.0872723	0.0842252	0.931304	1.03537	-0.313397	-0.341062	-0.088604	-0.348999	0.407474	-0.595908	-0.186804	0.0274412	0.742541	0.0361989	-0.263956	0.540056	0.0346739	0.106309	-0.00914646	0.00944745	-0.147386	0.101762	-0.575657	-0.26284	-0.157548	2.25594	-0.901661	-0.300564	-0.169721	2.13852
0.105	-0.168341	0.0806673	0.0802518	0.931298	1.03523	-0.312986	-0.337333	-0.084754	-0.323843	0.451392	-0.595621	-0.231386	0.0273899	0.728766	0.0301173	-0.295524	0.468632	0.0205433	0.158301	-0.00915317	0.0114573	-0.141725	0.106136	-0.58049	-0.267221	-0.153228	2.25786	-0.907924	-0.297938	-0.175252	2.14049
0.11	-0.168936	0.0734441	0.0769132	0.931158	1.03485	-0.312588	-0.331032	-0.0797458	-0.297415	0.500734	-0.592572	-0.274832	0.0273386	0.716036	0.0238255	-0.331464	0.404153	0.00503807	0.213866	-0.00915988	0.0123612	-0.135408	0.108989	-0.585018	-0.271189	-0.149332	2.25808	-0.912497	-0.29533	-0.179991	2.14164
0.115	-0.16924	0.0659661	0.0744625	0.930886	1.03425	-0.312234	-0.322172	-0.0737964	-0.270728	0.5548	-0.588437	-0.315761	0.0272872	0.704724	0.0177633	-0.371052	0.347633	-0.0110797	0.272135	-0.00916659	0.012276	-0.128863	0.110092	-0.589262	-0.274638	-0.145858	2.25652	-0.915407	-0.29282	-0.184009	2.14198
0.12	-0.169412	0.0586211	0.0730979	0.930483	1.03344	-0.311957	-0.31072	-0.0672357	-0.244775	0.612939	-0.584567	-0.353007	0.0272359	0.695112	0.0123888	-0.412933	0.299678	-0.0271569	0.331569	-0.00917331	0.0113782	-0.122529	0.10928	-0.593241	-0.277472	-0.142782	2.25313	-0.916705	-0.290506	-0.187395	2.14157
0.125	-0.169627	0.051782	0.0729384	0.929944	1.03244	-0.311788	-0.29664	-0.0604678	-0.220462	0.674534	-0.581822	-0.38564	0.0271845	0.687359	0.00811317	-0.455209	0.26046	-0.0427422	0.390019	-0.00918004	0.00987087	-0.116813	0.106482	-0.596973	-0.279614	-0.140072	2.24789	-0.916458	-0.288497	-0.190234	2.14044
0.13	-0.170035	0.045768	0.074014	0.929267	1.03126	-0.31175	-0.279947	-0.0539185	-0.19853	0.738978	-0.580524	-0.412998	0.0271332	0.681483	0.00523882	-0.495657	0.229765	-0.0576061	0.444955	-0.00918677	0.00794602	-0.112051	0.101728	-0.600476	-0.281005	-0.137698	2.24083	-0.914736	-0.286917	-0.192594	2.13864
0.135	-0.170732	0.0408099	0.0762755	0.928451	1.0299	-0.311854	-0.260751	-0.0479761	-0.179517	0.805641	-0.580511	-0.434713	0.0270818	0.677359	0.00391479	-0.532031	0.20708	-0.0716955	0.49383	-0.00919352	0.0057543	-0.108477	0.0951421	-0.60377	-0.28162	-0.135636	2.232	-0.911613	-0.285889	-0.19452	2.13624
0.14	-0.171747	0.0370351	0.0796087	0.927502	1.02838	-0.312096	-0.239274	-0.0429519	-0.16373	0.873867	-0.581249	-0.450732	0.0270305	0.674729	0.00411713	-0.562416	0.191711	-0.0850589	0.53451	-0.00920026	0.00338264	-0.10621	0.0869117	-0.606873	-0.281464	-0.133859	2.22148	-0.907167	-0.285528	-0.196035	2.13332
